<?xml version="1.0" encoding="UTF-8" standalone="no"?>
<!DOCTYPE svg PUBLIC "-//W3C//DTD SVG 1.1//EN" "http://www.w3.org/Graphics/SVG/1.1/DTD/svg11.dtd">
<svg width="100%" height="100%" viewBox="0 0 86 86" version="1.1" xmlns="http://www.w3.org/2000/svg" xmlns:xlink="http://www.w3.org/1999/xlink" xml:space="preserve" xmlns:serif="http://www.serif.com/" style="fill-rule:evenodd;clip-rule:evenodd;stroke-linejoin:round;stroke-miterlimit:2;">
    <g id="Layer_1">
        <g transform="matrix(-1,1.22465e-16,-1.22465e-16,-1,86,86)">
            <path d="M85.7,1.723C85.7,0.937 85.063,0.3 84.277,0.3L43.001,0.3C19.417,0.3 0.3,19.417 0.3,43C0.3,66.582 19.417,85.7 43,85.7C66.583,85.7 85.7,66.582 85.7,43L85.7,1.723Z" style="fill:url(#_Linear1);fill-rule:nonzero;"/>
        </g>
        <g transform="matrix(-1,1.22465e-16,-1.22465e-16,-1,86,86)">
            <path d="M43.187,75.025C25.631,75.025 11.349,60.743 11.349,43.187C11.349,25.631 25.631,11.349 43.187,11.349L75.024,11.349L75.024,43.187C75.024,60.743 60.742,75.025 43.187,75.025Z" style="fill:rgb(227,241,188);fill-rule:nonzero;"/>
        </g>
        <g transform="matrix(0.0989097,2.69461e-33,-2.69461e-33,0.0989097,15.67,19.3904)">
            <path d="M445.869,199.947C440.004,166.432 424.175,135.987 400.093,111.906C376.012,87.825 345.567,71.996 312.052,66.131C303.89,64.701 296.117,70.161 294.688,78.322C293.26,86.484 298.718,94.257 306.879,95.685C334.284,100.481 359.181,113.427 378.876,133.122C398.571,152.818 411.517,177.714 416.313,205.12C417.739,213.273 425.509,218.742 433.676,217.311C441.838,215.882 447.297,208.109 445.869,199.947ZM357.66,154.339C342.332,139.011 322.957,128.936 301.627,125.203C293.466,123.774 285.692,129.232 284.264,137.394C282.836,145.556 288.293,153.33 296.455,154.758C311.675,157.423 325.502,164.614 336.445,175.555C347.386,186.497 354.577,200.325 357.242,215.545C358.667,223.688 366.421,229.165 374.606,227.736C382.768,226.308 388.225,218.534 386.797,210.373C383.063,189.042 372.988,169.667 357.66,154.339ZM315.227,196.772C308.652,190.197 300.348,185.873 291.212,184.27C283.05,182.832 275.273,188.29 273.841,196.452C272.408,204.612 277.863,212.389 286.023,213.822C289.055,214.354 291.817,215.795 294.01,217.989C296.204,220.182 297.644,222.945 298.177,225.976C299.616,234.173 307.425,239.587 315.547,238.158C323.709,236.725 329.163,228.948 327.729,220.787C326.126,211.651 321.802,203.347 315.227,196.772ZM463.743,48.257C399.4,-16.085 294.705,-16.085 230.363,48.257C186.417,92.203 171.157,156.983 190.178,215.74L4.395,401.523C1.581,404.337 0,408.152 0,412.131L0,496.997C0,505.282 6.717,511.999 15.002,511.999L99.868,511.999C103.865,511.999 107.695,510.405 110.512,507.57L152.665,465.137C155.457,462.327 157.024,458.526 157.024,454.564L157.024,426.986L185.028,426.986C193.313,426.986 200.03,420.269 200.03,411.984L200.03,384.98L227.166,384.98C231.156,384.98 234.981,383.391 237.797,380.563L296.281,321.828C355.456,340.975 420.128,325.251 463.743,281.636C528.085,217.294 528.085,112.6 463.743,48.257ZM442.527,260.421C404.661,298.286 347.86,310.106 297.824,290.535C292.262,288.358 285.942,289.689 281.727,293.92L220.933,354.976L185.028,354.976C176.743,354.976 170.026,361.693 170.026,369.979L170.026,396.983L142.021,396.983C133.736,396.983 127.019,403.7 127.019,411.985L127.019,448.38L93.625,481.995L30.005,481.995L30.005,418.346L218.102,230.249C222.315,226.035 223.637,219.726 221.465,214.175C201.893,164.138 213.714,107.339 251.579,69.472C304.225,16.829 389.883,16.829 442.527,69.472C495.17,122.117 495.17,207.776 442.527,260.421Z" style="fill:rgb(20,114,160);fill-rule:nonzero;"/>
        </g>
    </g>
    <defs>
        <linearGradient id="_Linear1" x1="0" y1="0" x2="1" y2="0" gradientUnits="userSpaceOnUse" gradientTransform="matrix(-72.4763,72.4763,-72.4763,-72.4763,85.2829,0.7172)"><stop offset="0" style="stop-color:rgb(0,128,117);stop-opacity:1"/><stop offset="1" style="stop-color:rgb(0,191,175);stop-opacity:1"/></linearGradient>
    </defs>
</svg>
